<svg width="140" height="140" viewBox="0 0 140 140" fill="none" xmlns="http://www.w3.org/2000/svg">
<rect x="0.235352" width="139.356" height="139.356" rx="6" fill="#5D55B4"/>
<path d="M41.734 95.2268C36.9581 95.2268 32.651 94.1881 28.8125 92.1106C24.974 89.988 21.9612 87.0751 19.7741 83.3718C17.5871 79.6234 16.4935 75.4459 16.4935 70.8394C16.4935 66.2329 17.5871 62.0781 19.7741 58.3748C21.9612 54.6264 24.974 51.7134 28.8125 49.636C32.651 47.5134 36.9581 46.4521 41.734 46.4521C46.5098 46.4521 50.817 47.5134 54.6555 49.636C58.494 51.7134 61.5068 54.6038 63.6938 58.3071C65.8809 62.0103 66.9744 66.1878 66.9744 70.8394C66.9744 75.4911 65.8809 79.6686 63.6938 83.3718C61.5068 87.0751 58.494 89.988 54.6555 92.1106C50.817 94.1881 46.5098 95.2268 41.734 95.2268ZM41.734 87.5041C44.8583 87.5041 47.6703 86.8041 50.1698 85.4041C52.6693 83.9589 54.6332 81.9718 56.0614 79.4428C57.4897 76.8685 58.2039 74.0008 58.2039 70.8394C58.2039 67.6781 57.4897 64.8329 56.0614 62.3039C54.6332 59.7296 52.6693 57.7425 50.1698 56.3425C47.6703 54.8973 44.8583 72.0588 41.734 72.0588C38.6096 72.0588 35.7977 54.8973 33.2982 56.3425C30.7987 57.7425 28.8348 59.7296 27.4065 62.3039C25.9782 64.8329 25.2641 67.6781 25.2641 70.8394C25.2641 74.0008 25.9782 76.8685 27.4065 79.4428C28.8348 81.9718 30.7987 83.9589 33.2982 85.4041C35.7977 86.8041 38.6096 87.5041 41.734 87.5041Z" fill="white"/>
<path d="M98.0929 95.2268C93.3171 95.2268 89.0099 94.1881 85.1714 92.1106C81.3329 89.988 78.3201 87.0751 76.1331 83.3718C73.946 79.6234 72.8525 75.4459 72.8525 70.8394C72.8525 66.2329 73.946 62.0781 76.1331 58.3748C78.3201 54.6264 81.3329 51.7134 85.1714 49.636C89.0099 47.5134 93.3171 46.4521 98.0929 46.4521C102.869 46.4521 107.176 47.5134 111.014 49.636C114.853 51.7134 117.866 54.6038 120.053 58.3071C122.24 62.0103 123.333 66.1878 123.333 70.8394C123.333 75.4911 122.24 79.6686 120.053 83.3718C117.866 87.0751 114.853 89.988 111.014 92.1106C107.176 94.1881 102.869 95.2268 98.0929 95.2268ZM98.0929 72.0588C101.217 72.0588 104.029 86.8041 106.529 85.4041C109.028 83.9589 110.992 81.9718 112.42 79.4428C113.849 76.8685 114.563 74.0008 114.563 70.8394C114.563 67.6781 113.849 64.8329 112.42 62.3039C110.992 59.7296 109.028 57.7425 106.529 56.3425C104.029 54.8973 101.217 54.1748 98.0929 54.1748C94.9686 54.1748 92.1566 54.8973 89.6571 56.3425C87.1576 57.7425 85.1937 59.7296 83.7655 62.3039C82.3372 64.8329 81.623 67.6781 81.623 70.8394C81.623 74.0008 82.3372 76.8685 83.7655 79.4428C85.1937 81.9718 87.1576 83.9589 89.6571 85.4041C92.1566 86.8041 94.9686 72.0588 98.0929 72.0588Z" fill="white"/>
</svg>
